<svg id="Layer_1" data-name="Layer 1" xmlns="http://www.w3.org/2000/svg" viewBox="0 0 3655.93 1600"><defs><style>.cls-1{fill:#103178;}</style></defs><path class="cls-1" d="M1610.48,1325.07l-1.43,78.4q-79.62,99.27-135.18,159.9t-110.5,108.75q-54.91,48.08-90.91,68.31T1211.1,1760q-60.57-1.44-97.9-64.83t-35.51-162.28A782.41,782.41,0,0,1,1115,1308.7q35.19-110.55,98.76-227.81t158.75-262.75q70.76-107.43,71-121.06a22.84,22.84,0,0,0-3.84-13.73c-2.65-3.86-5.62-5.84-8.9-5.91q-15.56-.37-97.51,93.15t-211,275.73q-129,182.21-279.41,434.36-8.43,13.44-53.66,91.36t-63.69,101.34q-18.44,23.38-31.53,23.1-22.92-.54-38.53-65.13t-14.27-137.3q.82-44.31,22.62-94.94T758,1217.79q72.39-130.68,119.91-220.49t104.72-218q40.1-88.85,59.51-141.8t20.14-93.87q.65-35.19-14.09-35.56Q1017,507.31,929,620.59T710.31,958.05q-130.63,224.22-273.6,519.76-46.9,101.18-66.35,136T328,1648q-28.65-.69-52.07-85.92t-22.45-137.52q.31-17,10.51-37.25,111.71-197.38,183.83-335.45T576.23,789.5q56.32-124.29,82.37-204.91t26.9-127.25q.9-48.81-31-49.6-26.19-.63-90.08,44.46T402.87,575.66Q305.22,654,246.33,695.24t-87.54,40.52q-27-.64-26.23-42.67Q133,669.22,146,583.73T172,463.28q18-45,90.19-118.34t79.54-73.12q6.56.17,6.4,8.12-.08,4.55-6.79,13.48-34.26,36.69-51.06,60.16a121.33,121.33,0,0,0-21.41,51.78Q420.91,284,540.38,221.44T705.69,160q22.92.54,42.59,43.65t33,99.68q13.28,56.56,13,72.47-1.07,58-23.8,136.42T709.41,694.33Q671.09,798,614.18,953.49q44-75.06,83.61-138.92t78.84-124.3q39.18-60.45,79.62-122A1360.23,1360.23,0,0,1,978.74,408.09q67.71-76.26,126.32-124.29t79.08-47.57q28.63.69,50.36,45a202.72,202.72,0,0,1,20.8,94.26q-.61,33-33.42,125.39t-95.22,236.42q-62.43,144-164.84,371.16Q1057.64,973.18,1161,830.13t153.67-208.87Q1365,555.4,1398.38,521q45.88-46.65,92.33-100.66t73.22-85.23q26.77-31.18,47.53-47.73t38-16.15q21.25.49,52.36,69.44t30.73,88.27q-.43,23.87-20.28,56.35t-82,120.8q-114.36,163.23-199.29,330t-129.65,305q-44.71,138.19-46.17,218.82-.91,50,12.17,73t41.74,23.73a91.91,91.91,0,0,0,48.94-12.47q22.77-13.1,50.64-37.44t52.86-46.48q34.86-27.54,68.62-59.15t52.52-49.91Q1601.33,1332.84,1610.48,1325.07Z" transform="translate(-132.53 -160)"/><path class="cls-1" d="M1552.22,1258q5,0,8.84-4.5t3.78-13.5V784q0-9-3.78-12.5a12.65,12.65,0,0,0-8.84-3.5V750h118v18q-3.16,0-6.63,3t-3.47,9q0,5,2.53,13t5.68,17l90.25,260,90.9-257q4.4-13,6.62-20.5a48.41,48.41,0,0,0,2.21-13.5q0-11-8.2-11V750H1966.9v18a12.59,12.59,0,0,0-8.83,3.5q-3.79,3.51-3.79,12.5v456q0,9,3.79,13.5t8.83,4.5v18h-99.09v-18q17,0,17-18V908h-1.26l-126.87,368h-1.89L1630.49,907h-1.27v333q0,18,17.68,18v18h-94.68Z" transform="translate(-132.53 -160)"/><path class="cls-1" d="M2035.7,1258q8.19-2,12.94-13t9.15-25l116.77-389q4.41-13,7.89-24c2.3-7.33,3.47-13.66,3.47-19q0-10-4.42-14a31.5,31.5,0,0,0-9.47-6V750H2278.7v18a42.82,42.82,0,0,0-8.84,5.5q-4.41,3.51-4.41,14.5a59.92,59.92,0,0,0,2.2,16q2.2,8,6.63,21l131.29,407q3.15,11,8.52,16a121.43,121.43,0,0,0,12.31,10v18H2315.31v-18c1.68,0,3.79-1,6.31-3s3.79-5,3.79-9q0-10-5-26l-24-74h-154l-22.73,71q-6.32,21-6.31,30c0,7.35,4,11,12,11v18H2035.7Zm238-186-53-186-59.33,186Z" transform="translate(-132.53 -160)"/><path class="cls-1" d="M2522.33,1111l6.31,5a46.8,46.8,0,0,0,2.53,16q4.41,12,17.35,23.5a154.6,154.6,0,0,0,29.67,20.5,186.81,186.81,0,0,0,35,14.5q18.3,5.51,32.82,5.5a199,199,0,0,0,27.77-2.5,113.46,113.46,0,0,0,33.46-10.5,87.58,87.58,0,0,0,28.4-22q12-14,12-37t-11-34q-11-11-29-16a203.32,203.32,0,0,0-41-6.5q-23-1.5-47-4.5a281,281,0,0,1-47-10,105.19,105.19,0,0,1-41-23.5q-18-16.5-29-45t-11-74.5a208,208,0,0,1,9.15-61,152.45,152.45,0,0,1,28.09-53q18.95-23,48-37.5t68.17-14.5q33.45,0,58.07,8a310.68,310.68,0,0,1,42.6,17,316.3,316.3,0,0,1,30.3,17q12.3,8,20.51,8,8.84,0,12.62-6l7.58,8-43.55,125-6.31-4q-1.28-14-5-23-5.07-12-16.73-23.5a132.56,132.56,0,0,0-27.46-20.5,163.69,163.69,0,0,0-34.08-14.5,126.94,126.94,0,0,0-36.61-5.5,125.1,125.1,0,0,0-28.72,3.5,97.4,97.4,0,0,0-26.82,10.5,61.27,61.27,0,0,0-19.88,18.5q-7.9,11.5-7.89,28.5,0,24,11,36t29,18a178.45,178.45,0,0,0,41,8q23,2,47,5a253.35,253.35,0,0,1,47,10.5,110.79,110.79,0,0,1,41,24q18,16.5,29,44.5t11,73q0,52-17.35,85T2759,1247a145.81,145.81,0,0,1-55.86,25.5q-30,6.49-55.86,6.5-36,0-60.27-6.5t-40.4-16a231.87,231.87,0,0,1-25.56-17q-9.46-7.5-16.41-7.5-4.42,0-8.21,8l-8.83-8Z" transform="translate(-132.53 -160)"/><path class="cls-1" d="M3110,744q34.71,0,70.69,16.5t65.65,49.5q29.65,33,48.6,83.5t18.93,119.5q0,69-18.93,119.5t-48.6,83.5q-29.68,33-65.65,48T3110,1279q-34.71,0-70.69-15t-65.64-48q-29.68-33-48.6-83.5T2906.08,1013q0-69,18.94-119.5t48.6-83.5q29.65-33,65.64-49.5T3110,744Zm0,92q-24,0-48,12t-43.23,34.5Q2999.49,905,2987.5,938t-12,75q0,42,12,75t31.25,55.5Q3038,1166,3062,1178t48,12q24,0,48-12t43.24-34.5q19.24-22.5,31.24-55.5t12-75q0-42-12-75t-31.24-55.5Q3181.9,860,3157.92,848T3110,836Z" transform="translate(-132.53 -160)"/><path class="cls-1" d="M3412.92,1258q12,0,12-18V786q0-18-12-18V750h107.93v18c-3.38,0-5,3.34-5,10q0,8,12.62,28l181.15,298V786q0-18-16.41-18V750h95.31v18q-12,0-12,18v454q0,18,12,18v18H3686.21v-18q8.2,0,8.21-9,0-7-10.1-23L3491.81,908v332q0,18,14.52,18v18h-93.41Z" transform="translate(-132.53 -160)"/></svg>